<?xml version="1.0" standalone="no"?>
<!DOCTYPE svg PUBLIC "-//W3C//DTD SVG 20010904//EN"
 "http://www.w3.org/TR/2001/REC-SVG-20010904/DTD/svg10.dtd">
<svg version="1.0" xmlns="http://www.w3.org/2000/svg"
 width="700.000000pt" height="700.000000pt" viewBox="0 0 700.000000 700.000000"
 preserveAspectRatio="xMidYMid meet">
<metadata>
Created by potrace 1.11, written by Peter Selinger 2001-2013
</metadata>
<g transform="translate(0.000000,700.000000) scale(0.100000,-0.100000)"
fill="#000000" stroke="none">
<path d="M0 3500 l0 -3500 1256 0 1256 0 -7 28 c-34 135 -39 176 -40 339 0
102 4 176 10 182 7 7 10 -52 10 -177 0 -162 4 -200 24 -279 l23 -93 640 0
c353 0 639 2 637 4 -2 1 -35 29 -74 61 -161 135 -227 215 -268 330 -30 85 -48
229 -37 305 7 53 7 51 9 -33 3 -201 61 -355 182 -477 41 -42 106 -101 146
-133 l72 -57 1580 0 1581 0 0 3500 0 3500 -3500 0 -3500 0 0 -3500z m5918
3435 c-3 -3 -9 2 -12 12 -6 14 -5 15 5 6 7 -7 10 -15 7 -18z m-40 3 c8 -8 9
-15 1 -25 -15 -18 -36 -16 -43 3 -12 31 18 46 42 22z m-63 -56 c-4 -4 -10 -1
-12 6 -5 14 -33 17 -33 3 0 -5 6 -12 13 -14 7 -3 -1 -16 -23 -33 -77 -62 -175
-163 -221 -228 -27 -38 -47 -71 -45 -73 2 -3 26 19 52 48 102 111 185 179 219
179 7 0 15 8 18 18 4 16 4 16 11 0 6 -13 -16 -39 -91 -111 -54 -53 -95 -99
-91 -103 4 -4 20 6 36 22 51 53 119 104 138 103 17 -1 17 -2 2 -6 -10 -2 -18
-10 -18 -16 0 -7 -21 -27 -48 -45 -69 -48 -117 -91 -109 -98 3 -4 29 12 58 35
52 42 69 49 69 31 0 -6 12 -8 28 -4 l27 5 -22 -18 c-12 -10 -43 -34 -69 -53
-80 -60 -99 -78 -92 -86 4 -4 26 6 48 21 45 31 84 35 108 11 14 -14 15 -20 4
-37 -7 -11 -10 -24 -7 -29 3 -5 -10 -16 -30 -24 -45 -19 -95 -54 -95 -67 0 -5
27 4 60 21 66 34 80 36 80 16 0 -8 -29 -25 -67 -41 -92 -36 -186 -88 -257
-142 -50 -38 -56 -41 -38 -16 11 15 40 49 65 76 24 26 40 47 36 47 -10 0 -80
-59 -97 -83 -21 -28 -34 -9 -16 24 8 17 13 33 11 36 -5 5 -11 -4 -49 -77 -30
-57 -11 4 34 105 45 104 74 155 124 220 19 26 32 50 29 53 -8 8 -40 -30 -106
-128 -29 -42 -49 -64 -45 -50 10 41 -73 -132 -85 -177 -14 -54 -30 -57 -18 -4
18 81 83 221 160 349 74 120 223 300 293 352 39 29 39 29 54 9 8 -11 11 -23 7
-27z m65 -22 c-24 -15 -36 -11 -14 4 10 8 21 12 24 10 2 -3 -2 -9 -10 -14z
m-15 -50 c3 -5 -1 -10 -10 -10 -9 0 -13 5 -10 10 3 6 8 10 10 10 2 0 7 -4 10
-10z m15 -85 c-7 -8 -16 -15 -21 -15 -14 0 -11 38 4 43 20 7 31 -11 17 -28z
m-15 -104 c7 -12 -12 -24 -25 -16 -11 7 -4 25 10 25 5 0 11 -4 15 -9z m-663
-56 c0 -5 -5 -11 -11 -13 -6 -2 -11 4 -11 13 0 9 5 15 11 13 6 -2 11 -8 11
-13z m666 -28 c4 -21 -25 -34 -40 -19 -8 8 -8 16 2 27 16 19 34 15 38 -8z
m-618 -33 c0 -8 -4 -12 -10 -9 -5 3 -10 10 -10 16 0 5 5 9 10 9 6 0 10 -7 10
-16z m-58 -60 c-6 -87 15 -146 33 -91 6 20 8 20 12 3 4 -15 7 -16 15 -5 7 10
8 -2 4 -35 -3 -27 -6 -67 -7 -90 0 -32 -2 -37 -9 -21 -5 11 -9 37 -9 57 -1 20
-6 40 -13 44 -12 7 -7 -83 8 -136 4 -16 3 -22 -3 -15 -35 36 -74 354 -42 343
10 -4 13 -19 11 -54z m674 15 c8 -14 -11 -33 -25 -25 -11 7 -4 36 9 36 5 0 12
-5 16 -11z m-2233 -6 c94 -5 107 -8 107 -24 0 -17 -15 -18 -257 -17 -153 1
-298 -4 -357 -11 -65 -8 -102 -9 -108 -3 -18 18 22 29 147 42 66 6 127 13 135
15 30 6 229 5 333 -2z m1677 -7 c0 -3 -4 -8 -10 -11 -5 -3 -10 -1 -10 4 0 6 5
11 10 11 6 0 10 -2 10 -4z m-1405 -36 c0 -17 -43 -25 -64 -11 -22 14 -2 32 32
29 20 -2 32 -8 32 -18z m1945 -50 c0 -5 -4 -10 -10 -10 -5 0 -10 5 -10 10 0 6
5 10 10 10 6 0 10 -4 10 -10z m-125 -95 c-150 -69 -209 -95 -212 -91 -12 12
183 105 222 105 15 0 13 -4 -10 -14z m-1438 -26 c177 -49 404 -149 581 -254
95 -57 129 -82 121 -90 -4 -3 -49 20 -100 51 -172 104 -505 239 -676 274 -67
14 -75 18 -68 31 10 15 64 10 142 -12z m1423 -49 c0 -5 -4 -10 -10 -10 -5 0
-10 5 -10 10 0 6 5 10 10 10 6 0 10 -4 10 -10z m96 -1 c3 -6 -1 -18 -10 -27
-15 -15 -16 -14 -16 11 0 27 13 36 26 16z m169 -39 c3 -4 -3 -18 -14 -31 l-18
-23 -12 23 c-17 30 -8 51 19 44 11 -3 22 -9 25 -13z m-105 -11 c0 -5 -4 -9
-10 -9 -5 0 -10 7 -10 16 0 8 5 12 10 9 6 -3 10 -10 10 -16z m-177 -16 c-2 -8
7 -13 20 -13 12 0 28 -4 35 -9 9 -5 -7 -11 -45 -15 -88 -11 -112 -27 -31 -21
40 3 69 1 73 -5 4 -6 -7 -10 -24 -10 -44 0 -39 -18 6 -22 50 -4 57 -28 8 -28
-21 0 -34 -4 -30 -10 3 -5 17 -10 31 -10 15 0 23 -4 19 -10 -4 -6 11 -17 32
-25 45 -18 127 -59 98 -49 -11 4 -50 17 -86 30 -96 34 -200 54 -285 54 -41 0
-74 4 -74 9 0 4 28 12 63 17 l62 8 -45 6 c-42 6 -43 7 -17 14 15 5 27 12 27
17 0 17 -37 9 -94 -19 -31 -16 -56 -26 -56 -22 0 13 74 74 124 102 44 24 60
28 121 26 50 -2 69 -7 68 -15z m-3268 -22 c-3 -6 -31 -25 -63 -43 -127 -73
-310 -207 -373 -275 -69 -75 -92 -132 -64 -163 24 -27 9 -43 -63 -70 -32 -12
-85 -37 -120 -56 -132 -72 -115 -26 56 150 155 159 356 314 547 425 71 41 91
48 80 32z m3429 -27 c25 -9 19 -24 -9 -24 -16 0 -25 6 -25 15 0 16 9 19 34 9z
m152 -30 c-3 -9 -6 -22 -6 -30 0 -19 -16 -18 -24 2 -7 17 9 44 26 44 6 0 7 -7
4 -16z m-2593 -21 c3 -5 -38 -9 -91 -10 -111 -2 -118 -7 -121 -79 -2 -73 -11
-66 -11 9 0 52 4 68 18 76 20 12 198 15 205 4z m145 0 c-21 -2 -55 -2 -75 0
-21 2 -4 4 37 4 41 0 58 -2 38 -4z m1659 -9 c-3 -3 -12 -4 -19 -1 -8 3 -5 6 6
6 11 1 17 -2 13 -5z m127 -23 c30 -33 13 -43 -17 -11 -19 19 -24 30 -14 30 7
0 22 -9 31 -19z m542 1 c8 -4 8 -15 3 -30 -7 -19 -12 -21 -28 -12 -28 15 -36
31 -20 41 17 11 30 11 45 1z m-203 -79 c22 -13 37 -27 34 -30 -3 -3 -31 3 -62
12 -64 18 -79 15 -41 -10 23 -15 36 -45 21 -45 -3 0 -41 21 -83 46 -70 41 -73
45 -39 39 22 -3 37 -2 37 4 0 21 94 10 133 -16z m347 20 c-1 -15 -27 -43 -33
-36 -15 15 -6 43 13 43 11 0 20 -3 20 -7z m-600 -37 c0 -3 -4 -8 -10 -11 -5
-3 -10 -1 -10 4 0 6 5 11 10 11 6 0 10 -2 10 -4z m378 -25 c3 -8 -1 -12 -9 -9
-7 2 -15 10 -17 17 -3 8 1 12 9 9 7 -2 15 -10 17 -17z m-328 -5 c0 -20 -19
-31 -32 -18 -6 6 -7 15 -4 21 10 16 36 13 36 -3z m44 -35 c7 -10 -18 -34 -27
-25 -7 8 3 34 13 34 5 0 11 -4 14 -9z m204 -7 l23 -7 -22 -20 c-17 -16 -23
-17 -30 -6 -11 17 -12 39 -1 39 4 0 17 -3 30 -6z m312 -14 c0 -5 -7 -10 -15
-10 -8 0 -15 -5 -15 -12 0 -9 -3 -9 -11 -1 -6 6 -8 16 -5 22 9 14 46 14 46 1z
m-480 -25 c0 -8 -7 -15 -16 -15 -14 0 -14 3 -4 15 7 8 14 15 16 15 2 0 4 -7 4
-15z m395 -26 c9 -13 -27 -40 -39 -29 -12 12 0 40 18 40 8 0 18 -5 21 -11z
m-105 -19 c0 -5 -12 -10 -26 -10 -14 0 -23 4 -19 10 3 6 15 10 26 10 10 0 19
-4 19 -10z m-2101 -401 c86 -11 194 -24 241 -29 47 -5 114 -15 150 -21 141
-24 276 -51 305 -59 17 -4 47 -11 68 -15 20 -3 37 -12 37 -19 0 -43 110 -83
158 -57 17 9 29 8 55 -3 30 -12 33 -17 30 -43 -4 -23 1 -35 19 -49 17 -14 27
-33 31 -67 10 -70 32 -109 79 -140 35 -22 53 -27 106 -27 54 0 63 2 58 16 -3
9 -6 22 -6 30 0 8 -9 14 -19 14 -21 0 -51 25 -51 42 0 6 8 4 18 -5 10 -10 31
-17 45 -17 21 0 28 -6 33 -27 21 -103 68 -151 156 -160 36 -4 58 -2 62 6 12
19 21 12 34 -22 12 -33 39 -55 77 -62 11 -2 22 -4 25 -4 3 -1 -2 -6 -10 -11
-8 -5 -25 -7 -37 -4 -19 5 -24 -1 -39 -52 -18 -63 -16 -138 7 -212 27 -91 150
-177 282 -196 40 -6 44 -1 22 28 -17 22 -20 66 -5 66 6 0 10 -10 10 -22 0 -24
36 -68 56 -68 24 0 25 -20 1 -31 -36 -16 -68 -80 -68 -136 -1 -62 11 -91 52
-131 38 -37 64 -46 114 -40 33 4 34 3 27 -22 -14 -53 -5 -94 30 -122 18 -16
38 -28 45 -28 7 0 13 -5 13 -11 0 -7 -10 -9 -27 -4 -80 21 -161 -7 -244 -85
-114 -107 -141 -284 -63 -417 l25 -43 40 27 c54 36 62 21 11 -22 -36 -31 -41
-42 -44 -83 -2 -32 -7 -46 -16 -44 -7 1 -22 -2 -32 -8 -14 -8 -20 -8 -20 0 0
6 11 16 25 22 19 9 24 17 22 42 -2 29 -5 31 -50 34 -54 4 -130 -26 -184 -72
-38 -32 -73 -118 -73 -181 0 -40 2 -44 27 -47 40 -5 38 -23 -3 -25 -40 -2 -74
-27 -74 -55 0 -10 -4 -18 -10 -18 -5 0 -7 13 -4 29 5 24 2 29 -18 34 -102 28
-235 -43 -260 -139 -8 -28 -18 -44 -28 -44 -20 0 -80 -37 -80 -50 0 -5 11 -10
24 -10 31 0 78 -36 56 -44 -75 -27 -180 -58 -223 -67 -189 -37 -217 -39 -306
-29 -104 12 -103 11 -200 57 -84 40 -188 134 -261 233 -57 77 -157 197 -190
227 -97 88 -251 133 -392 113 -110 -16 -185 -56 -271 -143 -66 -69 -100 -114
-200 -270 -100 -154 -195 -200 -444 -213 -204 -11 -382 30 -658 151 -16 7 -38
15 -47 19 -25 8 -22 23 6 41 18 12 30 14 44 6 14 -7 26 -5 50 9 17 10 48 22
69 26 l38 7 -30 13 c-16 7 -46 10 -65 8 -34 -5 -35 -5 -50 42 -18 58 -52 84
-114 91 l-46 6 0 45 c0 109 -59 210 -148 254 -40 19 -62 23 -144 22 -97 0 -97
0 -92 23 9 32 -3 69 -28 93 -12 11 -18 23 -15 27 4 3 21 -6 37 -22 31 -29 31
-29 63 -12 141 78 142 312 1 449 -23 23 -57 47 -76 55 -29 12 -36 12 -60 -1
-39 -24 -43 -19 -13 16 26 30 30 66 14 116 -2 8 9 18 27 25 64 24 114 86 114
142 0 39 -27 42 -63 7 -45 -43 -82 -55 -123 -42 -46 15 -43 29 4 23 47 -6 89
10 103 39 9 21 16 23 102 23 81 0 98 4 142 27 61 33 86 54 112 93 80 120 72
305 -17 390 l-28 27 -17 -26 c-9 -14 -32 -31 -51 -38 -25 -9 -33 -16 -28 -28
4 -8 9 -26 11 -40 3 -19 -2 -14 -21 19 -31 51 -31 51 -9 51 9 0 31 11 48 24
55 42 64 132 20 199 l-17 27 43 -20 c153 -69 338 51 345 225 1 33 3 62 3 64 1
3 6 0 13 -7 34 -34 108 8 108 62 0 26 5 34 32 44 26 10 35 9 48 -3 22 -20 74
-19 95 1 14 15 20 14 68 -11 45 -24 60 -27 99 -21 84 13 148 79 148 153 0 38
-7 35 169 64 312 50 785 63 1060 28z m-1644 -39 c-11 -5 -54 -22 -95 -39 -257
-103 -421 -199 -600 -350 -104 -87 -225 -219 -288 -313 -85 -124 -171 -336
-210 -513 -23 -106 -26 -143 -26 -315 -1 -163 3 -217 22 -325 38 -210 129
-417 254 -580 184 -238 305 -337 568 -463 352 -169 631 -240 834 -212 218 30
378 124 455 271 18 32 34 59 36 59 3 0 -4 -23 -16 -52 -86 -220 -406 -341
-745 -283 -209 36 -572 182 -779 313 -239 152 -430 369 -562 635 -114 230
-137 348 -130 652 6 237 15 297 67 460 107 330 287 569 582 769 119 80 392
214 531 261 94 32 150 46 102 25z m2743 -26 c201 -58 527 -219 717 -355 277
-197 440 -395 558 -674 86 -205 123 -414 114 -639 -16 -368 -116 -581 -404
-857 -155 -148 -235 -204 -454 -316 -163 -84 -452 -193 -659 -249 -91 -24
-124 -28 -245 -28 -135 0 -143 1 -220 32 -44 17 -107 50 -141 72 -81 52 -193
172 -238 252 -44 80 -47 100 -5 32 89 -140 192 -238 329 -312 86 -46 156 -62
281 -62 139 0 257 28 494 116 157 58 216 84 365 160 175 90 291 172 427 299
280 262 398 538 395 923 -2 249 -40 410 -153 639 -87 177 -221 359 -357 484
-219 202 -447 335 -786 460 -112 41 -120 52 -18 23z m1256 -614 c136 -175 217
-330 288 -555 45 -141 52 -175 34 -175 -8 0 -17 15 -20 35 -26 139 -132 404
-215 539 -45 73 -184 260 -200 271 -6 3 -20 20 -32 38 -47 69 62 -46 145 -153z
m-5197 -17 c-123 -161 -243 -454 -272 -666 -3 -26 -10 -45 -14 -43 -23 14 38
275 93 401 64 146 201 365 229 365 4 0 -12 -26 -36 -57z m-247 -1182 c12 -63
29 -115 77 -236 36 -88 58 -134 123 -248 18 -32 30 -57 27 -57 -10 0 -106 158
-136 222 -53 117 -121 330 -121 381 0 29 21 -14 30 -62z m5770 -24 c-33 -176
-101 -327 -212 -474 -39 -51 -73 -93 -75 -93 -3 0 1 9 8 19 138 195 196 312
237 481 13 58 29 116 35 130 16 41 20 4 7 -63z m-2850 -624 c43 -17 113 -84
144 -138 22 -37 66 -163 66 -188 0 -23 -18 10 -35 63 -28 88 -111 182 -192
216 -57 24 -134 18 -199 -17 -81 -42 -92 -54 -130 -134 -36 -78 -53 -151 -84
-370 -24 -162 -49 -241 -100 -305 -35 -44 -88 -80 -116 -80 -13 1 -7 7 17 20
100 53 131 142 159 450 17 189 28 247 60 311 39 77 78 119 139 153 87 47 187
54 271 19z m-56 -69 c31 -12 15 -24 -32 -24 -60 0 -143 -39 -176 -84 -21 -27
-49 -104 -84 -226 l-10 -35 -1 42 c-1 24 13 85 29 137 26 82 36 100 72 131 58
49 155 77 202 59z m1590 -170 c8 -21 -1 -34 -24 -34 -22 0 -33 23 -17 39 16
16 34 14 41 -5z m-3967 -175 c60 -22 112 -89 156 -201 28 -69 34 -108 17 -108
-5 0 -10 9 -10 21 0 32 -65 161 -99 196 -17 17 -49 42 -71 54 -22 13 -40 29
-40 36 0 16 10 16 47 2z m4738 -149 c3 -6 -4 -10 -17 -10 -18 0 -20 2 -8 10
19 12 18 12 25 0z m-95 -36 c0 -3 -16 -25 -36 -49 -48 -59 -75 -134 -81 -227
-3 -43 -9 -78 -13 -78 -30 0 -10 179 27 253 26 51 103 127 103 101z m-3261
-109 c46 -23 103 -96 156 -200 55 -106 102 -160 147 -170 38 -9 92 2 142 27
36 19 39 19 26 3 -41 -50 -152 -69 -217 -39 -43 21 -69 55 -134 175 -63 116
-90 152 -142 190 -43 31 -28 41 22 14z m2011 -9 c0 -2 -20 -14 -44 -26 -61
-29 -113 -89 -179 -206 -61 -110 -89 -144 -135 -168 -116 -60 -207 -9 -288
161 -47 98 -77 174 -70 180 2 2 26 -43 55 -99 81 -165 128 -208 221 -208 69 0
104 29 171 140 68 113 119 169 185 204 44 22 84 33 84 22z m1380 -53 c-1 -5
-7 -19 -15 -33 -9 -15 -14 -54 -15 -99 0 -56 -3 -72 -11 -64 -18 18 -15 133 5
171 15 29 37 44 36 25z m-3868 -19 c26 4 37 3 33 -4 -3 -5 -18 -10 -33 -10
-58 0 -72 -11 -119 -92 -25 -43 -47 -77 -50 -74 -3 2 12 38 31 79 20 41 36 78
36 84 0 21 23 32 43 21 11 -5 37 -7 59 -4z m-712 -34 c0 -11 -4 -20 -10 -20
-5 0 -10 9 -10 20 0 11 5 20 10 20 6 0 10 -9 10 -20z m3435 -71 c5 -7 -5 -8
-32 -3 -51 9 -54 14 -10 14 20 0 39 -5 42 -11z m-212 -71 c-90 -91 -152 -238
-179 -421 -9 -67 -30 -56 -26 14 4 77 38 192 80 273 38 72 146 196 172 196 8
0 -13 -28 -47 -62z m1367 -74 c0 -8 -4 -12 -10 -9 -5 3 -10 10 -10 16 0 5 5 9
10 9 6 0 10 -7 10 -16z m-3638 -93 c66 -42 143 -174 172 -293 10 -42 -11 -34
-24 10 -39 122 -126 225 -201 237 -55 10 -91 -8 -120 -58 -20 -36 -24 -55 -23
-128 3 -248 127 -459 271 -459 76 0 126 51 138 140 4 28 10 50 14 50 4 0 4
-25 0 -56 -25 -184 -212 -214 -348 -57 -95 110 -146 343 -108 490 36 138 128
188 229 124z m2508 -16 c0 -3 -17 -5 -37 -5 -35 1 -37 2 -19 15 13 10 24 11
37 4 11 -5 19 -12 19 -14z m-3520 -86 c0 -17 -15 -9 -52 27 -53 49 -47 63 7
18 25 -20 45 -40 45 -45z m3410 56 c0 -2 -15 -33 -34 -67 -19 -35 -43 -91 -52
-125 -10 -35 -20 -63 -24 -63 -23 0 42 203 77 242 15 17 33 24 33 13z m-1430
-64 l-85 -6 -3 -102 -3 -102 51 -107 c27 -59 48 -109 46 -112 -3 -2 -30 46
-60 108 l-56 112 0 102 c0 57 3 106 7 109 3 4 47 6 97 5 l91 -2 -85 -5z m344
-105 c-4 -17 0 -27 13 -34 10 -6 15 -13 11 -17 -3 -4 -16 3 -27 14 -17 17 -19
25 -11 41 15 27 22 25 14 -4z m-341 -7 c-4 -12 0 -25 8 -29 7 -5 10 -12 6 -16
-10 -10 -37 16 -37 36 0 18 8 30 21 30 4 0 5 -9 2 -21z m-1078 -162 c7 -36 23
-83 34 -106 23 -44 28 -76 10 -65 -30 18 -89 210 -73 236 10 15 15 4 29 -65z
m2430 -42 c76 -36 159 -123 186 -194 28 -76 45 -166 59 -311 24 -254 92 -359
226 -348 31 3 62 12 72 21 23 21 39 22 21 1 -20 -24 -65 -44 -102 -44 -51 0
-134 46 -162 90 -32 50 -62 173 -76 302 -14 137 -45 276 -72 321 -12 20 -45
60 -73 89 -65 67 -126 89 -248 89 -69 0 -96 -5 -148 -27 -34 -14 -68 -31 -75
-36 -7 -5 -18 -8 -25 -5 -16 5 98 64 150 77 20 5 76 8 124 5 67 -3 99 -9 143
-30z m-1185 16 c0 -5 -7 -11 -15 -15 -22 -8 -18 -46 7 -73 18 -19 19 -23 5
-23 -18 0 -47 37 -47 60 0 9 7 26 16 38 15 22 34 29 34 13z m710 -121 c0 -5
-9 -10 -21 -10 -11 0 -17 5 -14 10 3 6 13 10 21 10 8 0 14 -4 14 -10z m255
-47 c27 -162 101 -261 206 -271 30 -3 48 -9 46 -16 -5 -16 -75 -7 -117 14 -45
24 -92 74 -120 129 -22 44 -51 160 -43 174 10 17 23 4 28 -30z m250 -35 c23
-22 26 -28 12 -28 -26 0 -67 45 -66 72 0 22 1 22 12 4 7 -11 25 -32 42 -48z
m-2240 -188 c-3 -5 -12 -10 -20 -10 -8 0 -17 5 -20 10 -4 6 5 10 20 10 15 0
24 -4 20 -10z m860 -530 c3 -5 -3 -10 -15 -10 -12 0 -18 5 -15 10 3 6 10 10
15 10 5 0 12 -4 15 -10z m-35 -249 c0 -6 17 -12 38 -14 27 -3 23 -4 -20 -5
-47 -2 -56 1 -52 13 7 16 34 21 34 6z m-53 -27 c-3 -3 -12 -4 -19 -1 -8 3 -5
6 6 6 11 1 17 -2 13 -5z"/>
<path d="M5743 6865 c-19 -21 -16 -27 7 -15 11 6 20 15 20 20 0 14 -13 12 -27
-5z"/>
<path d="M5730 6735 c-7 -8 -8 -15 -2 -15 5 0 15 7 22 15 7 8 8 15 2 15 -5 0
-15 -7 -22 -15z"/>
<path d="M5578 6471 c-43 -44 -78 -87 -78 -97 0 -10 3 -14 8 -8 4 5 46 48 92
97 46 48 77 87 70 87 -8 0 -49 -36 -92 -79z"/>
<path d="M5610 6355 c-7 -9 -10 -18 -6 -22 3 -3 6 -1 6 5 0 7 7 12 15 12 8 0
15 5 15 10 0 15 -16 12 -30 -5z"/>
<path d="M1850 4724 c0 -17 22 -14 28 4 2 7 -3 12 -12 12 -9 0 -16 -7 -16 -16z"/>
<path d="M5222 4608 c-16 -16 -15 -33 2 -47 18 -15 46 -4 46 18 0 17 -18 41
-30 41 -3 0 -11 -5 -18 -12z"/>
<path d="M5020 4600 c0 -5 5 -10 10 -10 6 0 10 5 10 10 0 6 -4 10 -10 10 -5 0
-10 -4 -10 -10z"/>
<path d="M1334 3815 c-9 -23 4 -47 23 -43 22 4 30 38 11 49 -19 13 -28 11 -34
-6z"/>
<path d="M1556 3563 c-11 -11 -6 -23 9 -23 8 0 15 4 15 9 0 13 -16 22 -24 14z"/>
<path d="M5394 3148 c-7 -22 19 -52 40 -45 21 7 30 35 17 51 -19 23 -48 20
-57 -6z"/>
<path d="M1810 2785 c0 -8 9 -15 20 -15 11 0 20 7 20 15 0 8 -9 15 -20 15 -11
0 -20 -7 -20 -15z"/>
<path d="M4890 2584 c0 -9 5 -14 12 -12 18 6 21 28 4 28 -9 0 -16 -7 -16 -16z"/>
</g>
</svg>
