<?xml version="1.0" standalone="no"?>
<!DOCTYPE svg PUBLIC "-//W3C//DTD SVG 20010904//EN"
 "http://www.w3.org/TR/2001/REC-SVG-20010904/DTD/svg10.dtd">
<svg version="1.0" xmlns="http://www.w3.org/2000/svg"
 width="564.000000pt" height="564.000000pt" viewBox="0 0 564.000000 564.000000"
 preserveAspectRatio="xMidYMid meet">
<metadata>
Created by potrace 1.11, written by Peter Selinger 2001-2013
</metadata>
<g transform="translate(0.000000,564.000000) scale(0.100000,-0.100000)"
fill="#000000" stroke="none">
<path d="M0 2820 l0 -2820 2820 0 2820 0 0 2820 0 2820 -2820 0 -2820 0 0
-2820z m2827 2050 c-43 -4 -81 -10 -84 -14 -4 -3 32 -6 78 -6 46 0 95 -3 109
-5 l25 -6 -24 11 c-13 6 -22 13 -19 15 8 8 58 -13 58 -24 0 -5 8 -7 19 -4 22
6 87 -33 131 -79 38 -40 86 -131 95 -181 l7 -37 -111 0 -112 0 -37 39 c-40 42
-90 61 -159 61 -56 0 -91 -16 -133 -61 l-35 -37 -114 -4 -113 -5 4 54 c3 30
11 59 18 66 10 10 11 5 7 -27 -5 -31 -4 -37 6 -27 6 6 11 30 11 53 -1 36 4 47
38 80 59 58 108 87 200 119 62 21 100 28 148 27 l65 -1 -78 -7z m536 -505 c1
-6 -25 -11 -60 -13 -58 -3 -74 4 -56 22 11 10 113 3 116 -9z m-975 -10 c10
-10 -4 -13 -62 -17 -39 -2 -60 1 -63 9 -2 6 4 14 14 17 20 5 104 -1 111 -9z
m-348 -222 c0 -49 -3 -98 -6 -110 -8 -28 -40 -30 -46 -5 -5 20 -50 32 -115 32
-38 0 -36 6 -33 -135 1 -49 3 -153 5 -230 l3 -140 34 -3 35 -3 6 53 c4 29 7
88 7 131 0 71 -2 79 -20 84 -11 3 -20 14 -20 25 0 17 7 18 107 16 91 -3 108
-6 111 -20 2 -11 -5 -18 -20 -20 -23 -3 -23 -3 -28 -206 l-5 -202 -145 3
c-227 6 -218 -10 -219 382 0 161 4 307 10 327 7 26 19 43 39 53 35 18 77 20
83 3 3 -8 6 -5 6 5 1 13 7 17 19 13 15 -4 100 -9 128 -7 7 1 14 10 17 21 3 12
14 20 26 20 20 0 21 -5 21 -87z m1299 58 c2 -1 -3 -9 -10 -18 -13 -17 -12 -17
7 0 12 10 37 18 55 19 73 2 69 8 69 -102 0 -80 -3 -100 -14 -100 -8 0 -16 10
-18 23 -3 20 -8 22 -51 20 -27 -1 -51 -4 -54 -7 -3 -2 -8 -43 -10 -90 l-6 -86
47 0 c39 0 46 3 46 20 0 28 19 25 30 -4 14 -37 0 -196 -16 -196 -8 0 -14 9
-14 20 0 16 -7 20 -34 20 -19 0 -37 -4 -40 -8 -3 -5 -8 -39 -12 -77 -8 -78 3
-95 62 -95 45 0 64 9 64 31 0 12 5 16 14 13 12 -4 15 -26 15 -95 l-1 -89 -59
0 c-40 0 -59 4 -60 13 0 10 -2 10 -6 0 -3 -8 -24 -13 -54 -13 -32 0 -49 4 -49
13 0 9 -2 9 -9 -1 -5 -8 -22 -12 -42 -10 -26 2 -35 8 -37 26 -2 15 2 22 14 22
15 0 16 9 11 83 -4 45 -7 205 -7 355 0 269 0 272 -21 272 -14 0 -19 5 -17 18
3 14 18 18 88 22 73 4 101 4 119 1z m-941 -10 c35 -1 44 -20 12 -28 -18 -5
-20 -11 -14 -57 3 -28 9 -60 14 -71 4 -11 32 -147 61 -302 46 -239 57 -283 72
-287 12 -3 17 -12 15 -23 -3 -16 -14 -18 -103 -18 -89 0 -100 2 -103 18 -3 12
4 20 17 24 22 6 25 12 15 37 -5 12 -21 16 -70 16 -62 0 -64 -1 -64 -25 0 -20
5 -25 26 -25 21 0 25 -4 22 -22 -3 -21 -8 -23 -58 -21 -30 1 -74 2 -97 3 -30
0 -43 5 -43 15 0 7 8 15 17 17 15 3 27 54 75 318 72 389 73 400 47 400 -10 0
-19 7 -19 15 0 10 15 15 58 17 31 2 64 2 72 1 8 -1 30 -2 48 -2z m402 -10 c0
-11 -9 -21 -21 -24 -14 -4 -20 -11 -16 -21 3 -8 20 -63 38 -123 17 -59 35
-112 39 -116 8 -9 14 7 48 133 34 127 34 127 11 133 -12 3 -19 12 -17 19 4 10
32 13 114 13 96 0 109 -2 112 -17 2 -12 -3 -18 -17 -18 -19 0 -20 -6 -18 -352
2 -332 3 -353 20 -356 12 -3 17 -11 15 -25 -3 -21 -9 -22 -105 -25 l-103 -3 0
26 c0 18 5 25 20 25 19 0 20 7 20 109 0 59 3 129 6 155 4 26 3 46 -3 46 -5 0
-27 -36 -48 -81 -22 -44 -43 -83 -47 -85 -4 -3 -26 31 -48 76 -22 44 -44 80
-48 80 -4 0 -6 -67 -4 -150 2 -123 6 -150 18 -150 7 0 14 -9 14 -19 0 -17 -9
-20 -62 -25 -104 -9 -133 -4 -136 22 -3 17 2 22 17 22 21 0 21 5 21 193 0 105
3 263 7 350 l6 157 -26 0 c-21 0 -27 5 -27 21 0 19 5 20 75 18 59 -3 75 -6 76
-19 0 -9 4 -6 9 8 12 29 60 32 60 3z m1088 -1 c12 -8 22 -22 22 -32 0 -9 6
-18 13 -20 26 -9 11 -418 -16 -446 -8 -7 -33 -13 -55 -14 -23 0 -42 -4 -42 -8
0 -4 19 -51 43 -106 33 -75 48 -100 64 -102 12 -2 23 -12 26 -23 5 -18 -1 -19
-99 -19 -97 0 -104 1 -104 20 0 12 7 20 16 20 9 0 13 6 10 13 -2 6 -17 49 -32
95 -21 64 -30 82 -45 82 -17 0 -19 -8 -19 -79 0 -88 5 -111 26 -111 8 0 14
-10 14 -25 l0 -26 -102 3 c-73 2 -103 7 -106 16 -2 7 5 16 15 18 18 5 21 18
26 102 4 53 7 211 7 350 0 245 -1 254 -20 259 -20 5 -27 33 -13 47 4 4 84 6
178 4 128 -3 176 -7 193 -18z m-2511 -278 c6 -4 11 -14 11 -22 -2 -29 2 -50
10 -50 4 0 20 11 35 26 26 24 47 25 47 1 0 -6 -12 -28 -26 -49 -15 -21 -24
-41 -21 -45 4 -3 24 -9 44 -12 29 -5 38 -11 38 -26 0 -15 -8 -21 -34 -23 l-34
-3 39 -40 c29 -30 35 -42 26 -51 -9 -9 -20 -7 -49 7 -21 11 -41 21 -45 23 -5
2 -8 -5 -8 -16 0 -28 -10 -52 -22 -52 -5 0 -15 14 -22 31 l-13 31 -21 -36
c-23 -39 -46 -46 -61 -18 -10 19 5 60 35 93 21 24 18 42 -5 29 -11 -5 -26 -10
-34 -10 -22 0 -30 31 -12 49 11 11 15 12 15 2 0 -9 4 -9 15 3 17 17 20 36 5
36 -5 0 -10 7 -10 15 0 8 3 14 8 14 23 -4 24 4 2 21 -25 19 -25 20 -3 20 12 0
25 -4 28 -10 13 -20 25 -9 25 23 0 44 11 56 37 39z m2983 -46 c0 -31 4 -43 15
-43 8 0 15 7 15 14 0 9 8 13 23 11 30 -4 35 -43 8 -58 -27 -14 -26 -23 2 -35
14 -7 22 -19 22 -35 0 -22 -4 -25 -32 -24 -18 1 -33 0 -33 -2 0 -2 11 -20 25
-40 27 -40 33 -79 13 -86 -21 -8 -38 2 -53 33 -20 37 -31 37 -39 -2 -3 -18
-11 -29 -18 -27 -16 6 -24 88 -9 88 6 0 11 6 11 13 0 6 -11 0 -24 -15 -28 -31
-83 -61 -96 -53 -17 11 -11 28 21 61 l31 32 -31 7 c-21 4 -31 13 -31 25 0 13
11 19 45 24 50 8 50 8 33 36 -11 17 -10 22 2 31 12 9 11 10 -4 5 -21 -7 -36 8
-36 37 0 24 17 21 54 -10 l31 -26 3 39 c6 69 52 69 52 0z m-3090 -41 c0 -8 -4
-15 -10 -15 -5 0 -10 7 -10 15 0 8 5 15 10 15 6 0 10 -7 10 -15z m997 -701
c12 -3 24 -16 26 -28 4 -18 4 -18 6 4 1 22 6 25 42 28 34 2 42 -1 46 -18 5
-20 12 -20 399 -20 385 0 394 0 415 21 20 20 29 20 224 17 l203 -3 48 -45 c27
-25 72 -61 99 -79 82 -55 105 -82 146 -165 58 -119 75 -209 60 -321 -20 -152
-42 -204 -127 -294 -115 -123 -231 -169 -394 -158 -107 7 -180 31 -250 83 -33
24 -79 48 -102 54 -54 12 -430 12 -567 0 -101 -9 -105 -10 -136 -45 -92 -100
-313 -128 -464 -59 -73 33 -201 128 -201 149 0 3 -9 16 -21 28 -32 35 -78 137
-90 202 -6 33 -9 98 -6 145 6 89 40 220 58 220 6 0 8 4 5 9 -9 14 66 102 119
140 27 19 45 30 41 23 -4 -6 22 -1 57 13 87 32 196 53 295 57 45 1 82 6 82 12
0 11 -191 0 -264 -16 -28 -6 -76 -21 -106 -35 l-55 -24 30 31 c31 33 71 57
115 71 30 9 236 11 267 3z m-997 -481 c2 -65 4 -135 4 -155 0 -34 3 -37 30
-40 20 -2 32 -9 34 -20 3 -16 -5 -18 -65 -18 -86 0 -115 8 -111 29 3 11 13 15
36 13 l32 -2 0 100 0 100 -24 -15 c-29 -19 -81 -16 -81 4 0 8 13 18 30 23 34
9 64 43 65 74 0 11 5 25 12 32 25 25 34 -7 38 -125z m214 102 c29 -31 36 -64
36 -167 0 -94 -18 -141 -60 -158 -50 -21 -100 14 -85 60 9 27 45 26 45 -1 0
-28 31 -21 47 11 7 14 13 49 13 77 l0 53 -44 -6 c-37 -5 -47 -3 -66 16 -18 18
-21 30 -17 62 7 52 31 78 74 78 23 0 41 -8 57 -25z m2697 12 c36 -27 49 -73
49 -172 0 -105 -12 -142 -53 -164 -51 -27 -111 14 -87 59 14 26 40 26 40 -1 0
-28 31 -21 47 11 7 14 13 51 13 82 0 31 5 60 10 63 6 3 10 14 10 23 -1 12 -6
8 -16 -10 -26 -49 -101 -50 -122 -3 -17 36 -15 55 8 93 16 26 26 32 52 32 18
0 40 -6 49 -13z m258 -6 c54 -54 53 -247 -2 -308 -43 -48 -127 -37 -146 19
-28 81 -2 262 42 293 30 21 83 19 106 -4z m-2793 -823 c4 -4 11 -52 15 -105 7
-82 6 -100 -7 -113 -11 -12 -48 -16 -169 -18 -106 -3 -155 0 -155 7 0 11 38
37 124 86 l49 27 -34 21 c-141 87 -145 90 -124 98 24 10 290 7 301 -3z m2554
4 c0 -4 -5 -13 -12 -20 -9 -9 -9 -12 1 -12 7 0 9 -5 5 -11 -5 -8 -1 -8 14 0
12 6 24 16 27 21 9 15 25 2 25 -19 0 -11 -19 -28 -50 -45 -27 -15 -50 -30 -50
-34 0 -4 36 -27 81 -51 127 -71 126 -71 -68 -71 -118 0 -173 4 -181 12 -13 13
-15 60 -6 160 l7 67 36 4 c71 7 171 7 171 -1z m40 -7 c-7 -8 -19 -15 -27 -15
-13 0 -13 3 -3 15 7 8 19 15 27 15 13 0 13 -3 3 -15z m83 -11 c-22 -16 -40
-18 -49 -3 -9 16 13 27 42 21 23 -4 23 -5 7 -18z m-405 -29 c4 -3 7 -63 7
-133 0 -126 0 -126 -25 -133 -14 -4 -416 -7 -894 -8 -477 -1 -872 -3 -876 -6
-5 -3 -95 -6 -201 -6 -175 -2 -193 0 -206 17 -19 27 -19 260 1 271 18 10 2184
8 2194 -2z m-988 -455 l0 -70 -155 0 -155 0 0 63 c0 35 3 67 7 70 3 4 73 7
155 7 l148 0 0 -70z m-923 -26 c14 -21 15 -33 6 -64 -5 -22 -6 -45 -2 -52 5
-7 9 -30 9 -50 0 -21 5 -38 11 -38 7 0 10 37 7 115 l-3 115 116 0 c128 0 143
-6 141 -58 -3 -67 -1 -158 4 -173 4 -13 -4 -17 -38 -17 l-43 -1 1 117 c1 64 0
100 -3 79 -4 -38 -23 -43 -23 -6 0 11 -4 18 -9 15 -4 -3 -7 -51 -6 -106 2 -86
0 -100 -14 -100 -14 0 -16 14 -13 111 3 79 1 109 -7 105 -6 -4 -11 -18 -11
-32 0 -35 -29 -31 -37 6 -10 51 -23 44 -22 -12 0 -39 3 -48 9 -33 7 16 9 12 9
-18 1 -23 -3 -36 -9 -32 -6 4 -10 -10 -10 -35 0 -25 4 -39 10 -35 6 3 10 14
10 23 0 9 5 24 10 32 7 11 10 2 10 -33 l0 -48 -57 3 -58 3 -3 45 c-2 25 -8 50
-14 55 -7 7 -9 -7 -6 -46 4 -52 3 -56 -16 -56 -20 0 -21 5 -21 123 l0 124 27
0 c19 0 33 -9 45 -26z m370 -5 c13 -25 16 -137 4 -178 -3 -13 -14 -29 -24 -35
-15 -9 -21 -7 -33 9 -21 28 -16 211 6 225 21 13 33 8 47 -21z m862 -16 c-1
-46 -1 -47 -11 -18 -14 39 -17 42 -28 25 -14 -21 -12 -167 1 -176 8 -4 10 9 8
45 -4 48 -3 51 20 51 17 0 22 -4 17 -16 -3 -9 -6 -35 -6 -59 0 -36 -4 -44 -22
-49 -42 -10 -53 15 -53 118 0 101 10 126 51 126 22 0 24 -4 23 -47z m71 39 c0
-16 21 -176 26 -200 3 -13 10 -22 17 -19 11 3 13 11 16 60 1 10 6 15 11 12 6
-3 10 1 10 9 0 8 -6 19 -14 23 -8 5 -15 32 -18 66 -4 50 -2 57 13 57 13 0 19
-11 25 -46 7 -51 21 -48 26 6 l3 35 58 3 c33 2 65 -2 72 -8 9 -8 15 -8 20 0 3
5 17 10 31 10 22 0 24 -4 24 -47 l-1 -48 -16 35 c-24 55 -28 16 -3 -45 37 -92
28 -151 -21 -138 -15 4 -19 14 -18 47 l1 41 10 -32 c11 -32 28 -45 28 -20 0 6
-11 44 -25 82 -13 39 -25 62 -25 52 0 -28 -17 -11 -24 23 -8 40 -26 29 -26
-15 0 -26 3 -33 15 -29 11 5 15 -1 15 -25 0 -21 -5 -31 -15 -31 -10 0 -15 -11
-15 -35 0 -43 18 -46 27 -5 9 45 25 36 21 -12 l-3 -43 -45 -3 c-72 -5 -110 5
-110 31 0 12 -5 29 -11 37 -8 11 -9 4 -6 -27 l5 -43 -43 0 c-40 0 -44 2 -42
24 1 14 -2 25 -8 25 -5 0 -9 -11 -8 -25 1 -18 -3 -24 -19 -24 -15 0 -18 4 -13
18 3 9 11 55 17 102 13 114 17 130 28 130 6 0 10 -4 10 -8z"/>
<path d="M2769 4813 c0 -4 -1 -36 -1 -71 -1 -62 14 -91 20 -39 3 21 8 27 29
27 22 0 25 -4 21 -25 -4 -16 -1 -25 8 -25 8 0 13 21 16 65 2 47 0 65 -9 65 -8
0 -13 -13 -13 -30 0 -26 -4 -30 -26 -30 -23 0 -25 3 -22 32 2 19 -2 33 -9 35
-7 3 -13 1 -14 -4z"/>
<path d="M2613 4779 c-31 -19 -46 -59 -23 -59 6 0 10 7 10 15 0 8 3 15 8 15
25 -1 54 -57 45 -89 -5 -20 -4 -21 21 -10 26 12 35 29 16 29 -5 0 -19 19 -30
42 -22 45 -15 60 24 50 19 -5 19 -4 7 11 -18 22 -39 21 -78 -4z"/>
<path d="M2937 4793 c-14 -24 -36 -118 -29 -125 5 -5 25 -11 45 -15 30 -5 37
-3 37 11 0 12 -6 15 -22 11 -30 -7 -50 7 -42 28 7 19 29 23 39 7 9 -15 25 -12
25 4 0 8 -11 17 -24 20 -18 4 -23 11 -19 26 4 16 11 19 27 14 11 -4 23 -11 24
-15 6 -14 22 -10 22 5 0 8 -14 19 -31 25 -38 13 -46 14 -52 4z"/>
<path d="M3065 4660 c-8 -14 3 -30 21 -30 8 0 14 9 14 20 0 21 -24 28 -35 10z"/>
<path d="M2525 4650 c-8 -14 3 -30 21 -30 8 0 14 9 14 20 0 21 -24 28 -35 10z"/>
<path d="M2457 4597 c-12 -32 -8 -37 31 -36 29 2 31 3 10 6 -18 3 -28 11 -30
26 -3 20 -4 20 -11 4z"/>
<path d="M3160 4596 c0 -9 -7 -16 -15 -16 -8 0 -15 -4 -15 -10 0 -5 11 -10 25
-10 18 0 25 5 25 19 0 11 -4 23 -10 26 -5 3 -10 -1 -10 -9z"/>
<path d="M1730 4062 c0 -5 7 -9 15 -9 8 0 12 4 9 9 -3 4 -9 8 -15 8 -5 0 -9
-4 -9 -8z"/>
<path d="M3400 3436 c0 -9 5 -16 10 -16 6 0 10 4 10 9 0 6 -4 13 -10 16 -5 3
-10 -1 -10 -9z"/>
<path d="M2291 4134 c0 -11 3 -14 6 -6 3 7 2 16 -1 19 -3 4 -6 -2 -5 -13z"/>
<path d="M2297 3743 c-15 -65 -27 -121 -27 -125 0 -5 25 -8 56 -8 47 0 55 3
50 15 -3 9 -13 62 -22 118 -9 56 -19 105 -23 110 -4 4 -19 -46 -34 -110z"/>
<path d="M3836 4074 c-24 -17 -19 -29 14 -31 17 -1 30 2 30 7 0 5 -7 7 -15 4
-8 -4 -15 -1 -15 6 0 8 9 11 24 8 17 -3 23 -1 19 8 -6 15 -35 14 -57 -2z"/>
<path d="M3687 4043 c-11 -10 -8 -212 3 -234 14 -25 76 -27 84 -1 11 40 10
200 -2 218 -9 13 -76 27 -85 17z"/>
<path d="M1381 3774 c0 -11 3 -14 6 -6 3 7 2 16 -1 19 -3 4 -6 -2 -5 -13z"/>
<path d="M2311 3074 c0 -11 3 -14 6 -6 3 7 2 16 -1 19 -3 4 -6 -2 -5 -13z"/>
<path d="M3394 3059 c121 -10 192 -24 274 -55 76 -28 81 -22 8 12 -78 36 -177
54 -286 52 l-95 -1 99 -8z"/>
<path d="M2250 3039 c0 -5 5 -7 10 -4 6 3 10 8 10 11 0 2 -4 4 -10 4 -5 0 -10
-5 -10 -11z"/>
<path d="M3380 3006 c-78 -22 -133 -57 -201 -125 -106 -107 -146 -217 -136
-377 7 -119 39 -182 153 -299 107 -110 299 -135 487 -65 84 32 147 94 198 197
l44 88 0 115 c0 102 -3 124 -29 194 -25 69 -39 89 -105 156 -61 63 -88 82
-136 100 -75 27 -211 35 -275 16z m266 -131 c-3 -11 -6 -23 -6 -27 0 -17 -17
-7 -28 16 -12 28 -10 32 18 32 16 0 20 -5 16 -21z m-113 -46 c14 -6 30 -22 36
-36 13 -28 15 -90 3 -97 -5 -3 -8 15 -8 39 1 54 -24 84 -81 95 -37 8 -37 8 -6
9 18 0 43 -4 56 -10z m-131 -41 c-15 -15 -15 -60 -1 -91 23 -50 100 -67 141
-31 22 19 22 19 7 -2 -21 -32 -106 -105 -176 -153 -73 -50 -119 -60 -156 -36
-28 18 -51 73 -44 102 3 12 5 8 6 -9 0 -14 13 -40 27 -57 52 -63 154 -28 154
53 0 52 -41 96 -89 96 -37 0 -81 -28 -81 -52 0 -6 -2 -9 -5 -6 -14 14 17 47
113 124 58 46 108 81 111 79 2 -3 -1 -11 -7 -17z m437 -90 c10 -26 3 -57 -9
-38 -4 6 -11 10 -16 8 -11 -4 -14 4 -14 32 0 27 29 25 39 -2z m-115 -48 c54
-20 75 -104 42 -168 -21 -41 -163 -172 -211 -193 -49 -23 -77 -24 -115 -4 -52
27 -74 94 -47 143 21 38 194 186 252 216 35 19 45 19 79 6z m-576 -180 c-1 -8
1 -21 5 -27 6 -9 0 -13 -18 -13 -20 0 -26 4 -22 15 4 8 2 17 -4 20 -15 10 -1
24 21 22 12 -1 20 -7 18 -17z m230 -199 c5 -35 -4 -50 -27 -44 -15 4 -21 13
-21 32 0 33 6 40 28 37 9 -2 18 -13 20 -25z"/>
<path d="M3615 2614 c-24 -22 -27 -31 -22 -67 7 -53 44 -87 93 -87 77 0 111
87 58 149 -34 41 -88 43 -129 5z"/>
<path d="M3431 2444 c-50 -42 -38 -119 23 -148 40 -19 81 -10 106 22 24 30 25
63 5 102 -29 56 -85 66 -134 24z"/>
<path d="M2805 2979 c-10 -14 -1 -21 19 -13 9 3 13 10 10 15 -7 12 -21 11 -29
-2z"/>
<path d="M2880 2899 c0 -11 5 -17 10 -14 6 3 10 13 10 21 0 8 -4 14 -10 14 -5
0 -10 -9 -10 -21z"/>
<path d="M2470 2890 c0 -5 5 -10 11 -10 5 0 7 5 4 10 -3 6 -8 10 -11 10 -2 0
-4 -4 -4 -10z"/>
<path d="M2526 2862 c-4 -7 -18 -12 -32 -12 -13 0 -24 -5 -24 -11 0 -8 24 -10
74 -7 64 4 73 3 68 -11 -5 -13 -3 -14 9 -4 11 9 74 13 212 13 114 1 197 5 197
11 0 5 -101 9 -244 9 -181 0 -245 3 -248 12 -3 9 -6 9 -12 0z"/>
<path d="M2027 2838 c-50 -14 -139 -96 -166 -154 -50 -105 -37 -242 30 -318
131 -148 378 -126 467 43 40 73 48 134 33 227 -14 83 -62 155 -125 188 -46 23
-178 31 -239 14z m205 -50 c39 -15 95 -80 107 -125 19 -66 14 -173 -10 -218
-41 -77 -83 -109 -166 -124 -103 -20 -215 25 -261 104 -20 35 -22 51 -20 132
3 83 6 95 33 134 63 89 129 120 240 111 28 -2 62 -8 77 -14z"/>
<path d="M2252 2747 c15 -12 37 -33 49 -47 l21 -25 -17 30 c-19 32 -54 64 -70
65 -5 0 2 -10 17 -23z"/>
<path d="M1974 2742 c-12 -9 -29 -30 -39 -47 l-17 -30 26 30 c14 17 35 38 47
48 12 9 17 17 13 17 -5 0 -19 -8 -30 -18z"/>
<path d="M2044 2745 c-3 -8 -4 -35 -2 -60 l3 -45 -52 0 c-30 0 -55 -5 -60 -12
-4 -7 -9 -41 -9 -75 -2 -69 2 -73 84 -73 l42 0 0 -60 0 -61 73 3 72 3 3 58 3
57 55 0 55 0 -3 78 -3 77 -57 3 -57 3 1 32 c3 90 6 87 -72 87 -53 0 -72 -4
-76 -15z m86 -65 c0 -5 -4 -10 -10 -10 -5 0 -10 5 -10 10 0 6 5 10 10 10 6 0
10 -4 10 -10z m0 -234 c0 -11 -19 -15 -25 -6 -3 5 1 10 9 10 9 0 16 -2 16 -4z"/>
<path d="M1920 2441 c0 -16 66 -81 83 -81 6 0 -5 14 -26 31 -20 16 -41 38 -47
47 -7 12 -9 13 -10 3z"/>
<path d="M2300 2440 c0 -6 -19 -29 -42 -52 -24 -22 -33 -36 -22 -30 36 19 91
92 69 92 -3 0 -5 -5 -5 -10z"/>
<path d="M1860 2770 c0 -5 5 -10 11 -10 5 0 7 5 4 10 -3 6 -8 10 -11 10 -2 0
-4 -4 -4 -10z"/>
<path d="M1801 2724 c0 -11 3 -14 6 -6 3 7 2 16 -1 19 -3 4 -6 -2 -5 -13z"/>
<path d="M2572 2520 c-33 -27 -62 -57 -66 -65 -10 -28 5 -45 40 -45 53 0 154
72 154 110 0 68 -47 68 -128 0z"/>
<path d="M2855 2543 c-93 -62 -124 -125 -69 -139 32 -8 75 11 132 61 43 37 53
70 30 93 -19 19 -50 14 -93 -15z"/>
<path d="M2960 2441 c0 -5 5 -13 10 -16 6 -3 10 -2 10 4 0 5 -4 13 -10 16 -5
3 -10 2 -10 -4z"/>
<path d="M3837 2224 c-106 -100 -247 -151 -387 -141 -58 4 -70 3 -55 -5 10 -6
58 -11 105 -11 131 0 252 50 348 144 28 28 59 70 50 69 -2 -1 -29 -25 -61 -56z"/>
<path d="M1780 2226 c51 -55 146 -114 219 -136 70 -22 174 -26 234 -9 56 15
41 20 -28 9 -124 -20 -260 22 -390 120 -62 47 -66 49 -35 16z"/>
<path d="M2628 2239 c-117 -14 -141 -30 -33 -21 50 4 162 7 250 6 92 0 145 3
125 7 -61 13 -262 18 -342 8z"/>
<path d="M1402 2693 c-11 -21 2 -63 18 -63 20 0 50 20 50 34 0 15 -32 46 -48
46 -6 0 -15 -8 -20 -17z"/>
<path d="M4117 2703 c-13 -12 -7 -64 7 -69 19 -7 56 13 56 31 0 29 -45 56 -63
38z"/>
<path d="M4354 2679 c-14 -16 -20 -40 -23 -100 -4 -107 2 -129 38 -129 46 0
56 22 56 125 0 119 -25 155 -71 104z"/>
<path d="M1400 1886 c0 -2 28 -20 63 -41 34 -21 67 -44 74 -52 6 -8 14 -10 17
-5 3 5 -27 30 -66 56 -64 41 -88 53 -88 42z"/>
<path d="M1460 1740 c-57 -35 -62 -40 -37 -40 16 0 26 4 23 8 -2 4 15 20 40
36 38 24 52 36 42 36 -2 0 -32 -18 -68 -40z"/>
<path d="M4123 1829 c-29 -17 -53 -35 -53 -39 0 -5 27 -23 61 -41 50 -27 58
-34 43 -40 -13 -5 -7 -8 21 -8 l40 -1 -50 32 c-27 17 -60 38 -73 45 l-23 14
45 31 c25 16 46 32 46 34 0 6 -2 5 -57 -27z"/>
<path d="M1740 1838 c0 -20 1 -20 13 -5 6 9 30 18 52 20 35 3 34 4 -12 5 -48
2 -53 0 -53 -20z"/>
<path d="M2660 1813 c0 -5 -10 -13 -22 -18 -19 -8 -23 -19 -26 -66 -3 -65 15
-96 48 -79 24 13 33 80 10 80 -13 0 -15 -7 -12 -31 3 -24 1 -30 -9 -27 -9 3
-15 23 -17 53 -4 56 12 80 34 51 13 -19 14 -19 14 6 0 15 -4 30 -10 33 -5 3
-10 2 -10 -2z"/>
<path d="M3757 1814 c-12 -13 -8 -34 8 -34 8 0 15 -7 15 -15 0 -8 -7 -15 -15
-15 -8 0 -15 -7 -15 -15 0 -21 3 -20 51 25 34 32 41 42 31 52 -10 10 -14 8
-18 -10 -8 -28 -18 -28 -35 -1 -8 11 -17 17 -22 13z"/>
<path d="M1800 1795 c0 -8 7 -15 15 -15 8 0 15 -7 15 -15 0 -8 7 -15 15 -15 8
0 15 -5 15 -10 0 -6 -7 -13 -15 -16 -8 -4 -15 -12 -15 -20 0 -8 -7 -14 -15
-14 -8 0 -15 -5 -15 -10 0 -6 7 -13 15 -16 8 -4 15 -12 15 -20 0 -20 8 -18 36
9 27 26 30 37 9 37 -8 0 -15 6 -15 14 0 8 7 16 15 20 8 3 15 10 15 16 0 5 -7
10 -15 10 -8 0 -15 7 -15 15 0 8 7 15 16 15 17 0 14 22 -4 28 -7 2 -12 -3 -12
-12 0 -9 -7 -16 -15 -16 -8 0 -15 7 -15 15 0 8 -7 15 -15 15 -8 0 -15 -7 -15
-15z m60 -120 c0 -8 -7 -15 -15 -15 -8 0 -15 7 -15 15 0 8 7 15 15 15 8 0 15
-7 15 -15z"/>
<path d="M1982 1780 c-22 -29 -18 -42 6 -18 9 9 12 -1 12 -45 0 -31 -4 -57
-10 -57 -5 0 -10 -4 -10 -10 0 -5 14 -10 30 -10 17 0 30 5 30 10 0 6 -4 10
-10 10 -6 0 -10 32 -10 75 0 41 -4 75 -8 75 -5 0 -18 -13 -30 -30z"/>
<path d="M2065 1785 c-52 -51 -22 -157 38 -141 32 8 41 33 22 62 -12 19 -21
22 -44 18 -26 -6 -29 -4 -24 14 3 11 13 28 24 38 15 14 21 15 34 4 21 -18 30
-6 10 14 -22 22 -32 20 -60 -9z m45 -90 c15 -18 5 -35 -20 -35 -10 0 -22 5
-25 10 -7 11 12 40 25 40 4 0 13 -7 20 -15z"/>
<path d="M2200 1801 c0 -6 5 -11 10 -11 14 0 13 -123 -2 -138 -9 -9 -5 -12 21
-12 18 0 41 5 52 10 21 12 25 50 7 68 -8 8 -8 15 1 26 7 8 11 25 9 38 -3 20
-10 23 -50 26 -29 2 -48 -1 -48 -7z m74 -20 c8 -12 -3 -41 -15 -41 -5 0 -9 11
-9 25 0 25 14 34 24 16z m4 -78 c12 -22 5 -43 -14 -43 -9 0 -14 11 -14 30 0
33 14 40 28 13z"/>
<path d="M2328 1745 c3 -40 0 -70 -7 -79 -9 -11 -7 -15 11 -20 13 -3 26 -6 29
-6 3 0 4 34 1 75 -3 52 -1 75 7 75 6 0 11 5 11 10 0 6 -13 10 -28 10 l-28 0 4
-65z"/>
<path d="M2396 1788 c-18 -26 -20 -38 -7 -38 5 0 13 9 16 20 13 40 25 18 25
-45 0 -37 -4 -65 -10 -65 -5 0 -10 -4 -10 -10 0 -5 14 -10 30 -10 17 0 30 5
30 10 0 6 -4 10 -10 10 -5 0 -8 29 -7 65 2 69 7 78 25 43 10 -22 11 -22 11 -2
2 46 -65 62 -93 22z"/>
<path d="M2700 1801 c0 -5 5 -11 12 -13 15 -5 25 -128 9 -128 -6 0 -11 -4 -11
-10 0 -5 20 -10 45 -10 44 0 45 1 45 31 0 17 -4 28 -10 24 -5 -3 -10 -13 -10
-21 0 -23 -25 -11 -28 14 -2 15 2 22 12 22 10 0 16 9 16 23 0 17 -2 19 -10 7
-11 -17 -15 -13 -23 21 -5 21 -3 28 12 32 13 3 21 -2 26 -17 4 -13 8 -16 12
-8 11 28 -6 42 -52 42 -25 0 -45 -4 -45 -9z"/>
<path d="M2822 1768 c5 -24 8 -62 6 -85 -3 -36 0 -43 15 -43 12 0 16 4 10 13
-10 15 -13 97 -4 97 4 0 15 -25 26 -55 18 -55 29 -63 31 -22 0 12 1 46 2 75 2
53 6 59 30 43 18 -11 30 -131 13 -131 -6 0 -11 -4 -11 -10 0 -5 20 -10 45 -10
41 0 45 2 45 24 0 14 -4 28 -10 31 -5 3 -10 18 -10 32 0 20 -3 23 -14 14 -11
-9 -15 -7 -20 11 -3 13 -6 26 -6 31 0 14 33 7 47 -10 12 -17 13 -16 11 7 -3
24 -7 25 -73 28 l-70 3 2 -48 3 -48 -18 45 c-12 31 -24 46 -39 48 -20 3 -21 1
-11 -40z m186 -86 c2 -15 -2 -22 -12 -22 -11 0 -16 9 -16 26 0 31 23 28 28 -4z"/>
<path d="M3040 1800 c0 -5 5 -10 11 -10 11 0 5 -122 -7 -141 -3 -5 9 -9 25 -9
17 0 31 5 31 10 0 6 -7 10 -15 10 -16 0 -20 27 -6 49 15 23 41 5 41 -28 0 -32
13 -47 31 -35 8 5 8 9 -1 14 -7 4 -12 32 -12 66 0 32 -5 65 -10 72 -12 14 -88
16 -88 2z m75 -35 c0 -11 -8 -21 -17 -23 -14 -3 -18 3 -18 23 0 20 4 26 18 23
9 -2 17 -12 17 -23z"/>
<path d="M3198 1743 c-9 -38 -19 -76 -23 -85 -5 -14 -2 -18 15 -18 17 0 20 4
15 20 -5 16 -2 20 15 20 16 0 20 -5 16 -15 -4 -11 2 -15 22 -15 18 0 23 3 14
9 -7 4 -18 40 -24 80 -7 41 -16 71 -23 71 -7 0 -19 -30 -27 -67z m28 -41 c-12
-11 -18 7 -10 30 l8 23 4 -23 c2 -13 1 -26 -2 -30z"/>
<path d="M3294 1802 c-6 -4 -14 -18 -18 -32 l-7 -25 20 23 c10 12 22 22 25 22
3 0 6 -29 6 -65 0 -37 -4 -65 -10 -65 -5 0 -10 -4 -10 -10 0 -5 14 -10 30 -10
17 0 30 5 30 10 0 6 -4 10 -10 10 -5 0 -9 28 -8 65 2 65 3 65 20 43 17 -22 18
-22 18 -2 0 11 -5 25 -12 32 -13 13 -57 16 -74 4z"/>
<path d="M3470 1790 c-22 -22 -25 -48 -10 -102 12 -42 30 -52 59 -32 16 12 21
26 21 60 0 76 -33 111 -70 74z m50 -76 c0 -38 -22 -61 -39 -41 -10 13 -8 56 6
97 7 24 33 -18 33 -56z"/>
<path d="M3550 1800 c0 -5 5 -10 11 -10 8 0 10 -24 7 -75 -3 -72 -3 -75 19
-75 13 0 23 5 23 10 0 6 -4 10 -10 10 -5 0 -10 23 -10 52 0 60 11 54 30 -14 7
-27 16 -48 20 -48 4 0 10 28 12 63 3 34 8 70 13 80 5 13 2 17 -12 17 -18 0
-20 -6 -16 -52 l4 -53 -21 53 c-18 43 -26 52 -46 52 -13 0 -24 -4 -24 -10z"/>
<path d="M3395 1728 c0 -73 14 -103 37 -80 6 6 6 12 0 16 -10 6 -9 30 3 109 4
23 1 27 -18 27 -21 0 -22 -4 -22 -72z"/>
<path d="M1800 1735 c0 -8 7 -15 15 -15 8 0 15 7 15 15 0 8 -7 15 -15 15 -8 0
-15 -7 -15 -15z"/>
<path d="M3810 1735 c0 -8 -7 -15 -15 -15 -8 0 -15 -7 -15 -15 0 -8 -7 -15
-15 -15 -8 0 -15 -5 -15 -10 0 -6 7 -13 15 -16 8 -4 15 -12 15 -20 0 -17 16
-19 25 -3 4 6 -1 16 -11 24 -17 12 -16 15 14 41 35 31 40 44 17 44 -8 0 -15
-7 -15 -15z"/>
<path d="M2140 1720 c0 -5 11 -10 25 -10 14 0 25 5 25 10 0 6 -11 10 -25 10
-14 0 -25 -4 -25 -10z"/>
<path d="M3812 1679 c2 -6 8 -10 13 -10 5 0 11 4 13 10 2 6 -4 11 -13 11 -9 0
-15 -5 -13 -11z"/>
<path d="M3884 1630 c-5 -5 -29 -10 -54 -13 l-45 -4 52 -1 c28 -1 55 3 58 9 9
14 1 21 -11 9z"/>
<path d="M1781 1614 c0 -11 3 -14 6 -6 3 7 2 16 -1 19 -3 4 -6 -2 -5 -13z"/>
<path d="M2634 1370 c1 -8 10 -16 21 -17 15 -1 15 0 3 3 -9 3 -19 11 -21 17
-2 7 -3 5 -3 -3z"/>
<path d="M2791 1364 c0 -11 3 -14 6 -6 3 7 2 16 -1 19 -3 4 -6 -2 -5 -13z"/>
<path d="M1970 1340 c0 -25 4 -39 10 -35 6 3 10 19 10 35 0 16 -4 32 -10 35
-6 4 -10 -10 -10 -35z"/>
<path d="M2250 1338 c0 -31 3 -39 10 -28 13 20 13 57 0 65 -6 4 -10 -11 -10
-37z"/>
<path d="M2250 1226 c0 -25 4 -46 9 -46 4 0 8 18 8 40 0 22 -4 43 -8 46 -5 3
-9 -15 -9 -40z"/>
<path d="M2340 1285 c0 -62 4 -94 10 -90 6 3 10 44 10 90 0 46 -4 87 -10 90
-6 4 -10 -28 -10 -90z"/>
<path d="M3468 1394 c-11 -10 -10 -214 1 -214 5 0 10 8 13 18 6 29 -7 204 -14
196z"/>
<path d="M3422 1205 c0 -16 2 -22 5 -12 2 9 2 23 0 30 -3 6 -5 -1 -5 -18z"/>
</g>
</svg>
